<svg width="160" height="160" viewBox="0 0 160 160" fill="none" xmlns="http://www.w3.org/2000/svg">
<g clip-path="url(#clip0_591_133)">
<path d="M56.6657 50H86.6657V56.6666H56.6657V50Z" fill="#F5F6F7"/>
<path d="M143.333 0H16.6665C7.46655 0.0109375 0.0109375 7.46655 0 16.6665V143.333C0.0109375 152.533 7.46655 159.989 16.6665 160H69.9999V153.333H16.6665C11.1437 153.333 6.66655 148.856 6.66655 143.333V16.6665C6.66655 11.1437 11.1437 6.66655 16.6665 6.66655H143.333C148.856 6.66655 153.333 11.1437 153.333 16.6665V73.333H160V16.6665C159.989 7.46655 152.533 0.0109375 143.333 0Z" fill="#F5F6F7"/>
<path d="M110 93.3339C100.795 93.3339 93.3335 100.796 93.3335 110C93.3335 119.205 100.795 126.667 110 126.667C119.2 126.656 126.656 119.2 126.667 110C126.667 100.796 119.205 93.3339 110 93.3339ZM110 120C104.477 120 100 115.523 100 110C100 104.478 104.477 100 110 100C115.523 100 120 104.478 120 110C120 115.523 115.523 120 110 120Z" fill="#F5F6F7"/>
<path d="M100 13.3339H106.667V49.9995H100V13.3339ZM60 66.6673V13.3339H53.3334V66.6673C53.3334 70.3492 56.3181 73.3339 60 73.3339H66.6666V66.6673H60ZM43.3334 113.334H23.3334C21.4925 113.334 20 114.826 20 116.667V136.667C20 138.508 21.4925 140 23.3334 140H43.3334C45.1744 140 46.6669 138.508 46.6669 136.667V116.667C46.6666 114.826 45.1744 113.334 43.3334 113.334ZM40 133.334H26.6666V120H40V133.334ZM156.667 96.667H144.153C143.97 96.2007 143.776 95.7384 143.573 95.2804L152.427 86.4304C153.728 85.1289 153.728 83.0189 152.427 81.717L138.283 67.5735C137.646 66.9713 136.803 66.6358 135.926 66.6358C135.05 66.6358 134.207 66.9713 133.57 67.5735L124.72 76.427C124.26 76.2255 123.798 76.031 123.333 75.8436V63.3335C123.333 61.4926 121.841 60.0001 120 60.0001H99.9997C98.1587 60.0001 96.6663 61.4926 96.6663 63.3335V75.8436C96.201 76.0308 95.7388 76.2253 95.2797 76.427L86.4297 67.5735C85.7928 66.9713 84.9495 66.6358 84.073 66.6358C83.1964 66.6358 82.3532 66.9713 81.7163 67.5735L67.5728 81.717C66.2716 83.0186 66.2716 85.1285 67.5728 86.4304L76.4262 95.2804C76.2232 95.7385 76.0298 96.2008 75.8462 96.667H63.3328C61.4919 96.667 59.9994 98.1595 59.9994 100V120C59.9994 121.841 61.4919 123.334 63.3328 123.334H75.8462C76.0297 123.8 76.223 124.262 76.4262 124.72L67.5728 133.57C66.2716 134.872 66.2716 136.982 67.5728 138.284L81.7163 152.427C83.0178 153.729 85.1278 153.729 86.4297 152.427L95.2797 143.574C95.7431 143.78 96.2031 143.97 96.6663 144.154V156.667C96.6663 158.508 98.1587 160.001 99.9997 160.001H120C121.841 160.001 123.333 158.508 123.333 156.667V144.154C123.799 143.97 124.262 143.777 124.72 143.574L133.57 152.427C134.871 153.729 136.981 153.729 138.283 152.427L152.427 138.284C153.728 136.982 153.728 134.872 152.427 133.57L143.573 124.72C143.776 124.262 143.97 123.8 144.153 123.334H156.667C158.508 123.334 160 121.841 160 120V100C160 98.1595 158.508 96.667 156.667 96.667ZM153.333 116.664H141.807C141.098 116.664 140.407 116.89 139.835 117.31C139.263 117.729 138.84 118.321 138.627 118.997C138.092 120.675 137.412 122.302 136.593 123.861C136.265 124.49 136.145 125.207 136.253 125.908C136.36 126.61 136.688 127.259 137.19 127.761L145.357 135.927L135.93 145.354L127.763 137.187C127.262 136.686 126.613 136.357 125.911 136.25C125.21 136.143 124.492 136.262 123.863 136.591C122.305 137.409 120.677 138.09 119 138.624C118.323 138.837 117.732 139.26 117.312 139.832C116.893 140.404 116.667 141.095 116.667 141.804V153.334H103.333L103.337 141.811C103.337 140.355 102.392 139.068 101.003 138.631C99.3258 138.096 97.6984 137.416 96.1397 136.597C95.5108 136.269 94.7934 136.149 94.0919 136.257C93.3905 136.364 92.7416 136.692 92.2397 137.194L84.0731 145.36L74.6466 135.934L82.8131 127.767C83.3148 127.265 83.6431 126.617 83.7504 125.915C83.8577 125.214 83.7383 124.496 83.4097 123.867C82.5913 122.309 81.9109 120.681 81.3762 119.004C81.1634 118.327 80.7403 117.736 80.1684 117.316C79.5965 116.897 78.9056 116.67 78.1963 116.67H66.6663V103.337H78.1928C79.6488 103.337 80.9359 102.392 81.3728 101.004C81.9075 99.3262 82.5879 97.6989 83.4062 96.1401C83.7349 95.5112 83.8542 94.7938 83.7469 94.0924C83.6396 93.3909 83.3113 92.742 82.8097 92.2401L74.6431 84.0735L84.0697 74.647L92.2363 82.8136C92.7382 83.3152 93.3871 83.6435 94.0885 83.7508C94.79 83.8581 95.5073 83.7388 96.1362 83.4101C97.6942 82.5901 99.3217 81.9097 101 81.3767C101.676 81.1639 102.268 80.7408 102.687 80.1688C103.107 79.5969 103.333 78.906 103.333 78.1967V66.6667H116.663V78.1932C116.663 79.6492 117.608 80.9364 118.997 81.3732C120.674 81.9063 122.302 82.5868 123.86 83.4067C124.489 83.7353 125.206 83.8546 125.908 83.7473C126.609 83.64 127.258 83.3117 127.76 82.8101L135.927 74.6436L145.353 84.0701L137.187 92.2367C136.685 92.7386 136.357 93.3875 136.249 94.0889C136.142 94.7904 136.261 95.5078 136.59 96.1367C137.408 97.6954 138.089 99.3227 138.623 101C138.836 101.677 139.259 102.268 139.831 102.688C140.403 103.107 141.094 103.334 141.803 103.334H153.333V116.664Z" fill="#F5F6F7"/>
</g>
<defs>
<clipPath id="clip0_591_133">
<rect width="160" height="160" fill="white"/>
</clipPath>
</defs>
</svg>
